<svg width="120" height="120" viewBox="0 0 120 120" xmlns="http://www.w3.org/2000/svg" role="img" aria-label="HabitLink app icon">
  <defs>
    <linearGradient id="appGradient" x1="18" y1="18" x2="102" y2="102" gradientUnits="userSpaceOnUse">
      <stop offset="0%" stop-color="#22C55E"></stop>
      <stop offset="100%" stop-color="#2563EB"></stop>
    </linearGradient>
  </defs>

  <!-- Full icon shape -->
  <rect x="0" y="0" width="120" height="120" rx="30" fill="url(#appGradient)"></rect>

  <!-- Link shape -->
  <g fill="none" stroke="#FFFFFF" stroke-width="6.5" stroke-linecap="round" stroke-linejoin="round">
    <path d="M45 70 L40 75 C35 80 27 80 22 75 C17 70 17 62 22 57 L33 46 C38 41 46 41 51 46"></path>
    <path d="M75 50 L80 45 C85 40 93 40 98 45 C103 50 103 58 98 63 L87 74 C82 79 74 79 69 74"></path>
    <path d="M42 60 H78"></path>
  </g>

  <!-- Habit check mark -->
  <path d="M47 58 L57 68 L77 46" fill="none" stroke="#FFFFFF" stroke-width="6.5" stroke-linecap="round" stroke-linejoin="round"></path>
</svg>
